<svg id="Layer_1" data-name="Layer 1" xmlns="http://www.w3.org/2000/svg" viewBox="0 0 390 390"><defs><style>.cls-1{fill:#6564db;}.cls-2{fill:#fff;}.cls-3{fill:none;stroke:#101d42;stroke-linecap:round;stroke-miterlimit:10;stroke-width:3px;}.cls-4{fill:#89d2dc;}</style></defs><path class="cls-1" d="M328.91,90.58v9.72a4.27,4.27,0,0,1-4.28,4.28H65.37a4.27,4.27,0,0,1-4.28-4.28V90.58A11.23,11.23,0,0,1,72.32,79.34H317.68A11.23,11.23,0,0,1,328.91,90.58Z"/><path class="cls-2" d="M328.91,111.49V296.8a13.86,13.86,0,0,1-13.85,13.86H74.94A13.86,13.86,0,0,1,61.09,296.8V111.49a6.9,6.9,0,0,1,6.9-6.91H322A6.9,6.9,0,0,1,328.91,111.49Z"/><path class="cls-3" d="M328.91,104.58V297.66a13,13,0,0,1-13,13H74.09a13,13,0,0,1-13-13V92.34a13,13,0,0,1,13-13H315.91a13,13,0,0,1,13,13Z"/><line class="cls-3" x1="61.09" y1="104.58" x2="328.91" y2="104.58"/><rect class="cls-4" x="80.93" y="121.13" width="230.56" height="30.21" rx="3.02"/><rect class="cls-3" x="84.29" y="166.15" width="97.3" height="121.52" rx="8.39"/><line class="cls-3" x1="178.64" y1="169.37" x2="87.07" y2="284.66"/><line class="cls-3" x1="87.15" y1="168.55" x2="178.8" y2="285.17"/><rect class="cls-4" x="196.21" y="167.46" width="115.28" height="40.16" rx="4.78"/><rect class="cls-4" x="201.22" y="223.4" width="40.1" height="7.46"/><rect class="cls-4" x="246.91" y="223.4" width="40.94" height="7.46"/><rect class="cls-4" x="292.6" y="223.4" width="15.39" height="7.46"/><rect class="cls-4" x="201.22" y="241.6" width="50.73" height="7.46"/><rect class="cls-4" x="256.05" y="241.6" width="23.68" height="7.46"/><rect class="cls-4" x="283.28" y="241.6" width="23.31" height="7.46"/><rect class="cls-4" x="200.57" y="260.25" width="15.29" height="7.46"/><rect class="cls-4" x="218.47" y="260.25" width="23.78" height="7.46"/><rect class="cls-4" x="245.79" y="260.25" width="60.8" height="7.46"/><rect class="cls-4" x="200.57" y="278.99" width="32.64" height="7.46"/><rect class="cls-4" x="236.94" y="278.99" width="23.96" height="7.46"/><rect class="cls-4" x="264.16" y="278.99" width="43.08" height="7.46"/><rect class="cls-2" x="80.54" y="88.62" width="6.62" height="6.62"/><rect class="cls-2" x="96.35" y="88.62" width="6.62" height="6.62"/><rect class="cls-2" x="112.16" y="88.62" width="6.62" height="6.62"/></svg>