<svg id="Layer_1" data-name="Layer 1" xmlns="http://www.w3.org/2000/svg" viewBox="0 0 390 390"><defs><style>.cls-1{fill:#89d2dc;}.cls-2{fill:#fff;}.cls-3{fill:none;stroke:#101d42;stroke-linecap:round;stroke-miterlimit:10;stroke-width:3px;}.cls-4{fill:#6564db;}</style></defs><path class="cls-1" d="M111.05,91.23A13,13,0,0,0,100.67,104v202.2L63,112.69a12.77,12.77,0,0,1,10.09-15l37.78-7.35Z"/><path class="cls-1" d="M110.89,90.39,228.22,67.58a12.74,12.74,0,0,1,14.95,10.07L245.75,91H113.68a12.68,12.68,0,0,0-2.63.26Z"/><path class="cls-2" d="M284.17,104V309.66a13,13,0,0,1-13,13H113.68a13,13,0,0,1-13-13V104a13,13,0,0,1,10.38-12.74,12.68,12.68,0,0,1,2.63-.26H271.17A13,13,0,0,1,284.17,104Z"/><path class="cls-3" d="M100.67,186.59V104a13,13,0,0,1,10.38-12.74,12.68,12.68,0,0,1,2.63-.26H271.17a13,13,0,0,1,13,13V309.66a13,13,0,0,1-13,13H113.68a13,13,0,0,1-13-13V186.59"/><path class="cls-3" d="M100.67,306.17,63,112.69a12.77,12.77,0,0,1,10.09-15l37.78-7.35L228.22,67.58a12.74,12.74,0,0,1,14.95,10.07L245.75,91"/><line class="cls-3" x1="136.26" y1="153.69" x2="205.15" y2="153.69"/><line class="cls-3" x1="136.26" y1="170.74" x2="247.79" y2="170.74"/><line class="cls-3" x1="136.26" y1="187.52" x2="247.79" y2="187.52"/><line class="cls-3" x1="136.26" y1="205.07" x2="247.79" y2="205.07"/><line class="cls-3" x1="136.26" y1="222.62" x2="247.79" y2="222.62"/><line class="cls-3" x1="136.26" y1="240.17" x2="247.79" y2="240.17"/><line class="cls-3" x1="136.26" y1="257.72" x2="247.79" y2="257.72"/><line class="cls-3" x1="136.26" y1="275.27" x2="247.79" y2="275.27"/><polygon class="cls-2" points="310.4 303.13 302.87 276.75 318.02 276.75 310.45 303.28 310.4 303.13"/><path class="cls-2" d="M314.42,123.06V129h-8.28v-5.93a4.14,4.14,0,0,1,7.07-2.93A4.08,4.08,0,0,1,314.42,123.06Z"/><polygon class="cls-2" points="318.02 128.99 318.02 140.36 302.87 140.36 302.87 128.99 306.14 128.99 314.42 128.99 318.02 128.99"/><rect class="cls-4" x="302.87" y="140.36" width="15.15" height="136.39"/><line class="cls-3" x1="318.02" y1="140.36" x2="318.02" y2="276.75"/><line class="cls-3" x1="302.87" y1="276.75" x2="302.87" y2="140.36"/><polygon class="cls-3" points="302.87 140.36 302.87 128.99 306.14 128.99 314.42 128.99 318.02 128.99 318.02 140.36 302.87 140.36"/><polygon class="cls-3" points="302.87 276.75 318.02 276.75 310.45 303.28 310.4 303.13 302.87 276.75"/><path class="cls-3" d="M306.14,129v-5.93a4.14,4.14,0,0,1,7.07-2.93,4.08,4.08,0,0,1,1.21,2.93V129"/><polyline class="cls-3" points="318.02 133.83 327.21 133.83 327.21 183.82"/></svg>