<svg id="Layer_1" data-name="Layer 1" xmlns="http://www.w3.org/2000/svg" viewBox="0 0 390 390"><defs><style>.cls-1,.cls-2{fill:#fff;}.cls-2{opacity:0.42;}.cls-3{fill:#6564db;}.cls-4{fill:none;stroke:#101d42;stroke-linecap:round;stroke-miterlimit:10;stroke-width:3px;}.cls-5{fill:#71cfeb;opacity:0.23;}.cls-6{fill:#89d2dc;}</style></defs><path class="cls-1" d="M315.61,293.41h44.95a20.14,20.14,0,0,1-20.17,20.17H36.79a20.16,20.16,0,0,1-20.18-20.17h299Z"/><polygon class="cls-2" points="179.43 293.21 179.43 298.2 234.14 298.2 234.14 292.8 179.43 293.21"/><path class="cls-3" d="M315.61,134.55V293.41H61.55V134.55A10.41,10.41,0,0,1,72,124.14H305.19A10.42,10.42,0,0,1,315.61,134.55Z"/><path class="cls-1" d="M303.8,141.45V285.54H70.16V141.45A9.51,9.51,0,0,1,79.73,132H294.22A9.51,9.51,0,0,1,303.8,141.45Z"/><path class="cls-4" d="M61.55,163.49V134.55A10.41,10.41,0,0,1,72,124.14H177.34"/><line class="cls-4" x1="61.55" y1="293.41" x2="61.55" y2="163.49"/><path class="cls-4" d="M177.34,293.41H16.61a20.16,20.16,0,0,0,20.18,20.17H177.34"/><path class="cls-4" d="M315.61,293.41V134.55a10.42,10.42,0,0,0-10.42-10.41H177.34"/><path class="cls-4" d="M177.34,293.41H360.56a20.14,20.14,0,0,1-20.17,20.17h-163"/><rect class="cls-5" x="81.59" y="154.41" width="219.29" height="8.82"/><rect class="cls-5" x="81.4" y="170" width="219.29" height="2.21"/><rect class="cls-5" x="81.4" y="174.64" width="219.29" height="2.21"/><rect class="cls-5" x="81.4" y="179.27" width="219.29" height="2.21"/><rect class="cls-5" x="81.59" y="191.96" width="219.29" height="8.82"/><rect class="cls-5" x="81.7" y="213.33" width="219.29" height="28.47"/><rect class="cls-5" x="81.65" y="251.12" width="184.38" height="4.53"/><rect class="cls-5" x="81.7" y="260.82" width="174.17" height="4.53"/><rect class="cls-5" x="81.7" y="271.5" width="174.17" height="4.53"/><path class="cls-1" d="M169.69,202c-18.73,4.48-37.47,8.89-56.2,13.08v40.54H370.26a3.13,3.13,0,0,0,3.13-3.13V83C324.94,145.35,247.33,182.2,169.69,202Z"/><path class="cls-1" d="M373.39,83V79.82a3.4,3.4,0,0,0-3.4-3.4H116.62a3.13,3.13,0,0,0-3.13,3.13V215.11c18.73-4.19,37.47-8.6,56.2-13.08C247.33,182.2,324.94,145.35,373.39,83Z"/><path class="cls-3" d="M373.39,79.82V99.67H113.49V79.55a3.13,3.13,0,0,1,3.13-3.13H370A3.4,3.4,0,0,1,373.39,79.82Z"/><line class="cls-4" x1="373.39" y1="99.67" x2="113.49" y2="99.67"/><path class="cls-4" d="M373.39,152.46V79.82a3.4,3.4,0,0,0-3.4-3.4H116.62a3.13,3.13,0,0,0-3.13,3.13v173a3.13,3.13,0,0,0,3.13,3.13H370.26a3.13,3.13,0,0,0,3.13-3.13V152.46"/><rect class="cls-1" x="125.22" y="84.74" width="6.62" height="6.62"/><rect class="cls-1" x="141.03" y="84.74" width="6.62" height="6.62"/><rect class="cls-1" x="156.84" y="84.74" width="6.62" height="6.62"/><rect class="cls-6" x="155.11" y="217.24" width="21.21" height="19.85"/><rect class="cls-6" x="192.32" y="207.33" width="21.21" height="29.76"/><rect class="cls-6" x="229.54" y="190.59" width="21.21" height="46.5"/><rect class="cls-6" x="266.75" y="164.12" width="21.21" height="72.98"/><rect class="cls-6" x="303.96" y="131.86" width="21.21" height="105.24"/><line class="cls-4" x1="338.33" y1="237.33" x2="142.65" y2="237.33"/><rect class="cls-4" x="155.11" y="217.24" width="21.21" height="19.85"/><rect class="cls-4" x="192.32" y="207.33" width="21.21" height="29.76"/><rect class="cls-4" x="229.54" y="190.59" width="21.21" height="46.5"/><rect class="cls-4" x="266.75" y="164.12" width="21.21" height="72.98"/><rect class="cls-4" x="303.96" y="131.86" width="21.21" height="105.24"/><path class="cls-4" d="M316.19,115.42a37,37,0,0,1,.06,10c-10,58.75-73.07,102.24-152.22,102.24-1.83,0-3.65,0-5.46-.08"/><polyline class="cls-4" points="324.99 124.23 316.19 115.42 307.34 124.12"/><line class="cls-4" x1="141.56" y1="152.13" x2="219.79" y2="152.13"/><line class="cls-4" x1="141.56" y1="139.99" x2="219.79" y2="139.99"/><line class="cls-4" x1="141.56" y1="127.84" x2="219.79" y2="127.84"/><line class="cls-4" x1="141.56" y1="164.28" x2="197" y2="164.28"/></svg>